<?xml version="1.0" encoding="UTF-8" standalone="no"?>
<!-- Created with Inkscape (http://www.inkscape.org/) -->

<svg
   width="100mm"
   height="100mm"
   viewBox="0 0 99.999997 100"
   version="1.1"
   id="svg5"
   inkscape:version="1.2.2 (732a01da63, 2022-12-09)"
   sodipodi:docname="logo.svg"
   xml:space="preserve"
   inkscape:export-filename="logo_x32.png"
   inkscape:export-xdpi="8.1280003"
   inkscape:export-ydpi="8.1280003"
   xmlns:inkscape="http://www.inkscape.org/namespaces/inkscape"
   xmlns:sodipodi="http://sodipodi.sourceforge.net/DTD/sodipodi-0.dtd"
   xmlns="http://www.w3.org/2000/svg"
   xmlns:svg="http://www.w3.org/2000/svg"><sodipodi:namedview
     id="namedview7"
     pagecolor="#505050"
     bordercolor="#eeeeee"
     borderopacity="1"
     inkscape:showpageshadow="0"
     inkscape:pageopacity="0"
     inkscape:pagecheckerboard="0"
     inkscape:deskcolor="#505050"
     inkscape:document-units="mm"
     showgrid="false"
     inkscape:zoom="2"
     inkscape:cx="174.75"
     inkscape:cy="210"
     inkscape:window-width="1920"
     inkscape:window-height="1147"
     inkscape:window-x="-8"
     inkscape:window-y="22"
     inkscape:window-maximized="1"
     inkscape:current-layer="layer1" /><defs
     id="defs2"><inkscape:path-effect
       effect="offset"
       id="path-effect37319"
       is_visible="true"
       lpeversion="1.2"
       linejoin_type="miter"
       unit="mm"
       offset="0.01"
       miter_limit="4"
       attempt_force_join="false"
       update_on_knot_move="true" /></defs><g
     inkscape:label="Layer 1"
     inkscape:groupmode="layer"
     id="layer1"
     transform="matrix(0.91751045,0,0,0.91751045,-39.635631,-38.846211)"
     style="stroke-width:1.08991"><path
       id="path1072"
       style="stroke-width:0.108991;fill:#fbda7d;fill-opacity:1;stroke:none;stroke-dasharray:none;stroke-opacity:1;paint-order:markers stroke fill"
       d="M 97.68375 49.887046 L 43.203048 64.498215 L 43.199106 64.497089 L 43.199106 129.17891 L 97.693325 143.78051 L 97.693325 143.77938 L 152.18585 129.17835 L 152.18585 64.497652 L 152.18867 64.497089 L 152.18585 64.496526 L 152.18585 64.495962 L 152.18529 64.495962 L 97.68375 49.887046 z "
       transform="translate(-9.082548e-8)" /><path
       style="fill:#000000;fill-opacity:0.2;stroke:none;stroke-width:57.6742;paint-order:markers stroke fill"
       d="M 43.199106,64.496821 97.693515,78.449959 V 143.78072 L 43.199106,129.17899 Z"
       id="path790"
       sodipodi:nodetypes="ccccc" /><path
       style="fill:#000000;fill-opacity:0.1;stroke:none;stroke-width:57.6742;paint-order:markers stroke fill"
       d="M 152.18574,64.496061 97.691328,78.449199 v 65.330761 l 54.494412,-14.60173 z"
       id="path790-1"
       sodipodi:nodetypes="ccccc" /><path
       style="fill:#ffffff;fill-opacity:0.5;stroke:none;stroke-width:0.108991;stroke-dasharray:none;stroke-opacity:1;paint-order:markers stroke fill"
       d="m 59.204654,68.593229 -0.0041,18.673715 8.428551,-1.409158 9.196757,6.38193 -0.0064,-19.135135 z"
       id="path7059"
       sodipodi:nodetypes="cccccc" /><path
       id="path7072"
       style="fill:#716100;fill-opacity:1;stroke:none;stroke-width:0.108991;stroke-dasharray:none;stroke-opacity:1;paint-order:markers stroke fill"
       d="m 120.96439,56.125375 -53.518802,14.581817 1.563188,0.395701 53.635644,-14.52673 z"
       sodipodi:nodetypes="ccccc" /><path
       id="rect6222"
       style="fill:#ffffff;fill-opacity:0.5;stroke:none;stroke-width:0.108991;stroke-dasharray:none;stroke-opacity:1;paint-order:markers stroke fill"
       d="m 81.531876,-95.708302 0.0036,56.17379 8.891874,-15.856065 0.0061,-55.773933 z"
       transform="rotate(75.069754)"
       sodipodi:nodetypes="ccccc" /><g
       id="g9477"
       transform="matrix(1.6623414,0.44542304,0,1.6623414,-0.94568744,-144.58967)"
       style="stroke-width:0.655645"><rect
         style="fill:#000000;fill-opacity:0.5;stroke:none;stroke-width:0.0655644;stroke-dasharray:none;stroke-opacity:1;paint-order:markers stroke fill"
         id="rect8669"
         width="19.010483"
         height="1.8495717"
         x="37.715977"
         y="153.29506" /><path
         id="rect8723"
         style="fill-opacity:0.5;stroke-width:0.0655645;paint-order:markers stroke fill"
         d="m 41.893185,144.50857 h -2.002716 l 3.288951,-3.70417 3.28895,3.70417 h -2.002716 v 6.87551 h -2.572469 z"
         sodipodi:nodetypes="cccccccc" /><path
         id="rect8723-8"
         style="fill-opacity:0.5;stroke-width:0.0655645;paint-order:markers stroke fill"
         d="M 49.976786,144.50857 H 47.97407 l 3.288951,-3.70417 3.28895,3.70417 h -2.002716 v 6.87551 h -2.572469 z"
         sodipodi:nodetypes="cccccccc" /></g><g
       id="g35357"
       transform="matrix(1.3317308,-0.35683619,0,1.3317308,-118.98103,81.328355)"
       style="stroke-width:0.818414"
       inkscape:path-effect="#path-effect37319"><path
         style="fill:#6ccabd;stroke-width:0.818414"
         d="m 176.0957,51.074219 v 1.417969 1.419921 h 1.41992 1.41797 v -1.419921 -1.417969 h -1.41797 z m 19.75586,19.753906 v 1.419922 1.417969 h 1.41992 1.41797 v -1.417969 -1.419922 h -1.41797 z"
         id="path35373"
         inkscape:original-d="m 197.27093,73.659121 h -1.41112 V 72.24801 70.836899 h 1.41112 1.41111 v 1.411111 1.411111 z M 177.51537,53.903565 h -1.41111 v -1.411111 -1.411111 h 1.41111 1.41111 v 1.411111 1.411111 z" /><path
         style="fill:#33bda8;stroke-width:0.818414"
         d="m 178.91797,51.074219 v 1.417969 1.419921 h 1.41992 1.41797 v -1.419921 -1.417969 h -1.41797 z m 8.4668,0 v 1.417969 1.419921 h 1.41992 1.41797 v -1.419921 -1.417969 h -1.41797 z m 2.82226,5.644531 v 1.417969 1.419922 h 1.41992 1.41797 V 58.136719 56.71875 h -1.41797 z m 5.64453,2.822266 v 1.417968 1.419922 h 1.41992 1.41797 v -1.419922 -1.417968 h -1.41797 z m 0,8.466796 v 1.417969 1.417969 h 1.41992 1.41797 v -1.417969 -1.417969 h -1.41797 z"
         id="path35371"
         inkscape:original-d="m 197.27093,70.836899 h -1.41112 v -1.411111 -1.411111 h 1.41112 1.41111 v 1.411111 1.411111 z m 0,-8.466667 h -1.41112 V 60.959121 59.54801 h 1.41112 1.41111 v 1.411111 1.411111 z m -5.64445,-2.822222 h -1.41111 v -1.411111 -1.411111 h 1.41111 1.41111 v 1.411111 1.411111 z m -11.28889,-5.644445 h -1.41111 v -1.411111 -1.411111 h 1.41111 1.41111 v 1.411111 1.411111 z m 8.46667,0 h -1.41111 v -1.411111 -1.411111 h 1.41111 1.41111 v 1.411111 1.411111 z" /><path
         style="fill:#11b59b;stroke-width:0.818414"
         d="m 181.74023,51.074219 v 1.417969 1.419921 h 2.83008 2.81446 v 1.402344 1.419922 h 2.83007 2.81446 v 2.814453 2.830078 h 1.41992 1.40234 v 2.814453 2.830079 h 1.41992 1.41797 v -2.830079 -2.830078 h -1.41797 -1.40429 V 59.548828 56.71875 h -1.41797 -1.4043 v -1.404297 -1.417969 h -2.83008 -2.81445 v -1.404296 -1.417969 h -2.83008 z"
         id="path35369"
         inkscape:original-d="m 197.27093,68.014677 h -1.41112 v -2.822223 -2.822222 h -1.41111 -1.41111 V 59.54801 56.725788 h -2.82222 -2.82222 v -1.411111 -1.411112 h -2.82222 -2.82223 v -1.411111 -1.411111 h 2.82223 2.82222 v 1.411111 1.411111 h 2.82222 2.82222 v 1.411112 1.411111 h 1.41111 1.41111 v 2.822222 2.822222 h 1.41112 1.41111 v 2.822222 2.822223 z" /><path
         style="fill:#8c6326;stroke-width:0.818414"
         d="m 193.0293,53.896484 v 1.417969 1.419922 h 1.41992 1.41797 v -1.419922 -1.417969 h -1.41797 z m -8.4668,8.466797 v 1.417969 1.419922 h 1.41992 1.41797 V 63.78125 62.363281 h -1.41797 z m -5.64453,5.644531 v 1.417969 1.417969 h 1.41992 1.41797 v -1.417969 -1.417969 h -1.41797 z m -5.64453,5.642579 v 1.419921 1.417969 h 1.41992 1.41797 v -1.417969 -1.419921 h -1.41797 z m -5.64453,5.644531 v 1.419922 1.417968 h 1.41992 1.41797 v -1.417968 -1.419922 h -1.41797 z"
         id="path35367"
         inkscape:original-d="m 169.0487,82.125788 h -1.41111 v -1.411111 -1.411111 h 1.41111 1.41111 v 1.411111 1.411111 z m 5.64445,-5.644445 h -1.41111 v -1.411111 -1.411111 h 1.41111 1.41111 v 1.411111 1.411111 z m 5.64444,-5.644444 h -1.41111 v -1.411111 -1.411111 h 1.41111 1.41111 v 1.411111 1.411111 z m 5.64445,-5.644445 h -1.41111 v -1.411111 -1.411111 h 1.41111 1.41111 v 1.411111 1.411111 z m 8.46666,-8.466666 h -1.41111 v -1.411111 -1.411112 h 1.41111 1.41111 v 1.411112 1.411111 z" /><path
         style="fill:#6c4a1c;stroke-width:0.818414"
         d="m 195.85156,51.074219 v 1.417969 1.419921 h 1.41992 1.41797 v -1.419921 -1.417969 h -1.41797 z m -8.46679,8.466797 v 1.417968 1.419922 h 1.41992 1.41797 v -1.419922 -1.417968 h -1.41797 z m -5.64454,5.644531 v 1.417969 1.419922 h 1.41993 1.41796 v -1.419922 -1.417969 h -1.41796 z m -5.64453,5.642578 v 1.419922 1.417969 h 1.41992 1.41797 v -1.417969 -1.419922 h -1.41797 z m -5.64453,5.644531 v 1.419922 1.417969 h 1.41992 1.41797 v -1.417969 -1.419922 h -1.41797 z m -5.64453,5.644532 v 1.419921 1.417969 h 1.41992 1.41797 v -1.417969 -1.419921 h -1.41797 z"
         id="path35365"
         inkscape:original-d="m 166.22648,84.94801 h -1.41111 v -1.411111 -1.411111 h 1.41111 1.41111 v 1.411111 1.411111 z m 5.64445,-5.644444 h -1.41112 v -1.411112 -1.411111 h 1.41112 1.41111 v 1.411111 1.411112 z m 5.64444,-5.644445 h -1.41111 V 72.24801 70.836899 h 1.41111 1.41111 v 1.411111 1.411111 z m 5.64444,-5.644444 h -1.41111 v -1.411111 -1.411112 h 1.41111 1.41112 v 1.411112 1.411111 z m 5.64445,-5.644445 h -1.41111 V 60.959121 59.54801 h 1.41111 1.41111 v 1.411111 1.411111 z m 8.46667,-8.466667 h -1.41112 v -1.411111 -1.411111 h 1.41112 1.41111 v 1.411111 1.411111 z" /><path
         style="fill:#473013;stroke-width:0.818414"
         d="m 193.0293,51.074219 v 1.417969 1.419921 h 1.41992 1.41797 v -1.419921 -1.417969 h -1.41797 z m -5.64453,5.644531 v 1.417969 1.404297 h -1.40235 -1.41992 v 1.417968 1.404297 h -1.40234 -1.41993 v 1.417969 1.404297 h -1.40234 -1.41992 v 1.417969 1.404296 h -1.40235 -1.41992 v 1.417969 1.402344 h -1.40234 -1.41992 v 1.419922 1.402344 h -1.40235 -1.41992 v 1.419921 1.402344 h -1.40234 -1.41992 v 1.419922 1.402344 h -1.40235 -1.41992 v 1.419922 1.417968 h 1.41992 1.41797 v -1.417968 -1.404297 h 1.4043 1.41797 v -1.417969 -1.404297 h 1.40429 1.41797 v -1.417969 -1.404296 h 1.4043 1.41797 V 72.248047 70.84375 h 1.40429 1.41797 v -1.417969 -1.402343 h 1.4043 1.41797 v -1.419922 -1.402344 h 1.4043 1.41796 V 63.78125 62.378906 h 1.4043 1.41797 v -1.419922 -1.402343 h 1.4043 1.41797 V 58.136719 56.71875 h -1.41797 z"
         id="path35363"
         inkscape:original-d="m 166.22648,82.125788 h -1.41111 v -1.411111 -1.411111 h 1.41111 1.41111 v -1.411112 -1.411111 h 1.41111 1.41111 v -1.411111 -1.411111 h 1.41112 1.41111 V 72.24801 70.836899 h 1.41111 1.41111 v -1.411111 -1.411111 h 1.41111 1.41111 v -1.411111 -1.411112 h 1.41111 1.41111 v -1.411111 -1.411111 h 1.41111 1.41112 V 60.959121 59.54801 h 1.41111 1.41111 v -1.411111 -1.411111 h 1.41111 1.41111 v 1.411111 1.411111 h -1.41111 -1.41111 v 1.411111 1.411111 h -1.41111 -1.41111 v 1.411111 1.411111 h -1.41112 -1.41111 v 1.411112 1.411111 h -1.41111 -1.41111 v 1.411111 1.411111 h -1.41111 -1.41111 v 1.411111 1.411111 h -1.41111 -1.41111 v 1.411111 1.411111 h -1.41111 -1.41112 v 1.411111 1.411112 h -1.41111 -1.41111 v 1.411111 1.411111 z M 194.4487,53.903565 h -1.41111 v -1.411111 -1.411111 h 1.41111 1.41111 v 1.411111 1.411111 z" /><path
         style="fill:#083830;stroke-width:0.818414"
         d="m 176.0957,48.251953 v 1.417969 1.404297 h -1.40234 -1.41992 v 1.417969 1.419921 h 1.41992 1.40234 v 1.402344 1.419922 h 5.65235 5.65234 v -1.419922 -1.417969 h -5.65234 -5.63672 v -1.404296 -1.402344 h 7.04883 7.04687 v 1.402344 1.419921 h 1.41992 1.41797 v -1.419921 -1.417969 h -1.41797 -1.40429 v -1.404297 -1.417969 h -7.0625 z m 19.75586,8.466797 v 1.417969 1.419922 h 1.41992 1.40235 v 7.046875 7.046875 h -1.40235 -1.40429 v -5.634766 -5.652344 h -1.41797 -1.41992 v 5.652344 5.650391 h 1.41992 1.40234 v 1.404296 1.417969 h 1.41992 1.41797 v -1.417969 -1.404296 h 1.4043 1.41797 v -7.0625 -7.0625 h -1.41797 -1.4043 V 58.136719 56.71875 h -1.41797 z"
         id="path35361"
         inkscape:original-d="m 197.27093,76.481343 h -1.41112 v -1.411111 -1.411111 h -1.41111 -1.41111 v -5.644444 -5.644445 h 1.41111 1.41111 v 5.644445 5.644444 h 1.41112 1.41111 V 66.603566 59.54801 h -1.41111 -1.41112 v -1.411111 -1.411111 h 1.41112 1.41111 v 1.411111 1.411111 h 1.41111 1.41111 v 7.055556 7.055555 h -1.41111 -1.41111 v 1.411111 1.411111 z M 181.7487,56.725788 h -5.64444 v -1.411111 -1.411112 h -1.41111 -1.41111 v -1.411111 -1.411111 h 1.41111 1.41111 v -1.411111 -1.411111 h 7.05555 7.05556 v 1.411111 1.411111 h 1.41111 1.41111 v 1.411111 1.411111 h -1.41111 -1.41111 v -1.411111 -1.411111 h -7.05556 -7.05555 v 1.411111 1.411111 h 5.64444 5.64445 v 1.411112 1.411111 z" /><path
         style="fill:#27170e;stroke-width:0.818414"
         d="m 195.85156,53.896484 v 1.417969 1.419922 h 1.41992 1.41797 v -1.419922 -1.417969 h -1.41797 z m -5.64453,5.644532 v 1.417968 1.404297 h -1.40234 -1.41992 v 1.417969 1.404297 h -1.40235 -1.41992 v 1.417969 1.404296 h -1.40234 -1.41993 v 1.417969 1.402344 h -1.40234 -1.41992 v 1.419922 1.402344 h -1.40235 -1.41992 v 1.419921 1.402344 h -1.40234 -1.41992 v 1.419922 1.402344 h -1.40235 -1.41992 v 1.419922 1.402344 h -1.40234 -1.41992 v 1.419921 1.417969 h 1.41992 1.41797 v -1.417969 -1.404297 h 1.40429 1.41797 v -1.417968 -1.404297 h 1.4043 1.41797 v -1.417969 -1.404297 h 1.40429 1.41797 v -1.417969 -1.404296 h 1.4043 1.41797 V 72.248047 70.84375 h 1.4043 1.41796 v -1.417969 -1.402343 h 1.4043 1.41797 v -1.419922 -1.402344 h 1.4043 1.41797 V 63.78125 62.378906 h 1.40429 1.41797 v -1.419922 -1.417968 h -1.41797 z"
         id="path35359"
         inkscape:original-d="m 169.0487,84.94801 h -1.41111 v -1.411111 -1.411111 h 1.41111 1.41111 v -1.411111 -1.411111 h 1.41112 1.41111 v -1.411112 -1.411111 h 1.41111 1.41111 v -1.411111 -1.411111 h 1.41111 1.41111 V 72.24801 70.836899 h 1.41111 1.41111 v -1.411111 -1.411111 h 1.41111 1.41112 v -1.411111 -1.411112 h 1.41111 1.41111 v -1.411111 -1.411111 h 1.41111 1.41111 V 60.959121 59.54801 h 1.41111 1.41111 v 1.411111 1.411111 h -1.41111 -1.41111 v 1.411111 1.411111 h -1.41111 -1.41111 v 1.411112 1.411111 h -1.41111 -1.41111 v 1.411111 1.411111 h -1.41112 -1.41111 v 1.411111 1.411111 h -1.41111 -1.41111 v 1.411111 1.411111 h -1.41111 -1.41111 v 1.411111 1.411112 h -1.41111 -1.41111 v 1.411111 1.411111 h -1.41111 -1.41112 v 1.411111 1.411111 z m 28.22223,-28.222222 h -1.41112 v -1.411111 -1.411112 h 1.41112 1.41111 v 1.411112 1.411111 z" /></g></g></svg>
